<?xml version="1.0" standalone="no"?><!DOCTYPE svg PUBLIC "-//W3C//DTD SVG 1.1//EN" "http://www.w3.org/Graphics/SVG/1.1/DTD/svg11.dtd"><svg t="1781991338186" class="icon" viewBox="0 0 1024 1024" version="1.1" xmlns="http://www.w3.org/2000/svg" p-id="10543" xmlns:xlink="http://www.w3.org/1999/xlink" width="200" height="200"><path d="M238.613333 222.666667A395.2 395.2 0 0 1 390.026667 134.933333a120.373333 120.373333 0 0 1 8.16-79.626666A468.693333 468.693333 0 0 0 165.333333 189.706667a119.733333 119.733333 0 0 1 73.12 32.96zM623.306667 134.933333a395.2 395.2 0 0 1 151.413333 87.733334A119.733333 119.733333 0 0 1 848 189.706667a468.693333 468.693333 0 0 0-232.693333-134.4 120.373333 120.373333 0 0 1 8.16 79.626666zM956.426667 377.546667a119.253333 119.253333 0 0 1-38.72 35.68 118.026667 118.026667 0 0 1-26.293334 11.253333 391.04 391.04 0 0 1 0 175.04 118.026667 118.026667 0 0 1 26.293334 11.253333 119.68 119.68 0 0 1 38.72 35.626667 471.413333 471.413333 0 0 0 0-268.853333zM112 512a394.666667 394.666667 0 0 1 9.92-87.52 118.026667 118.026667 0 0 1-26.293333-11.253333 119.253333 119.253333 0 0 1-38.72-35.68 471.573333 471.573333 0 0 0 0 268.906666 119.253333 119.253333 0 0 1 38.72-35.68 118.026667 118.026667 0 0 1 26.293333-11.253333A394.666667 394.666667 0 0 1 112 512zM390.026667 889.066667a395.2 395.2 0 0 1-151.413334-87.733334A119.733333 119.733333 0 0 1 165.333333 834.293333a468.693333 468.693333 0 0 0 232.693334 134.4 120.373333 120.373333 0 0 1-8.16-79.626666zM774.72 801.333333a395.2 395.2 0 0 1-151.413333 87.733334 120.373333 120.373333 0 0 1-8.16 79.626666 468.693333 468.693333 0 0 0 232.853333-134.4 119.733333 119.733333 0 0 1-73.12-32.96z" p-id="10544"></path><path d="M506.666667 92.213333m-37.333334 0a37.333333 37.333333 0 1 0 74.666667 0 37.333333 37.333333 0 1 0-74.666667 0Z" p-id="10545"></path><path d="M124.48 334.453333a37.333333 37.333333 0 1 0-13.706667-50.986666 37.333333 37.333333 0 0 0 13.706667 50.986666z" p-id="10546"></path><path d="M143.099373 721.898435m-32.589091 18.213427a37.333333 37.333333 0 1 0 65.178181-36.426854 37.333333 37.333333 0 1 0-65.178181 36.426854Z" p-id="10547"></path><path d="M506.666667 931.786667m-37.333334 0a37.333333 37.333333 0 1 0 74.666667 0 37.333333 37.333333 0 1 0-74.666667 0Z" p-id="10548"></path><path d="M888.853333 689.546667a37.333333 37.333333 0 1 0 13.706667 50.986666 37.333333 37.333333 0 0 0-13.706667-50.986666zM837.866667 320.8a37.333333 37.333333 0 1 0 13.653333-51.04 37.333333 37.333333 0 0 0-13.653333 51.04zM516.213333 763.093333l238.293334-301.706666a5.333333 5.333333 0 0 0-4.213334-8.693334H512a5.333333 5.333333 0 0 1-5.333333-5.333333V264.213333a5.333333 5.333333 0 0 0-9.546667-3.306666l-238.293333 301.706666a5.333333 5.333333 0 0 0 4.213333 8.693334H501.333333a5.333333 5.333333 0 0 1 5.333334 5.333333v183.146667a5.333333 5.333333 0 0 0 9.546666 3.306666z" p-id="10549"></path></svg>