<?xml version="1.0" standalone="no"?><!DOCTYPE svg PUBLIC "-//W3C//DTD SVG 1.1//EN" "http://www.w3.org/Graphics/SVG/1.1/DTD/svg11.dtd"><svg t="1781991383795" class="icon" viewBox="0 0 1024 1024" version="1.1" xmlns="http://www.w3.org/2000/svg" p-id="11993" xmlns:xlink="http://www.w3.org/1999/xlink" width="200" height="200"><path d="M641.128 626.58l4.311-0.082c22.183-1.18 42.619-10.9 57.503-27.369 14.924-16.47 22.489-37.82 21.29-60.106-2.257-44.937-39.753-78.851-87.454-78.851-22.224 1.18-42.66 10.899-57.522 27.409-2.177 2.4-3.967 5.043-5.673 7.565l-0.448 0.651-108.133-10.005c-2.482-19.48-11.672-37.21-25.986-50.142l44.936-80.805c5.49 1.098 10.94 1.667 16.267 1.667 45.893 0 83.246-37.372 83.246-83.286 0-45.913-37.353-83.245-83.246-83.245-45.913 0-83.266 37.332-83.266 83.245 0 21.513 8.236 41.845 23.119 57.463l-46.564 83.775c-5.449-0.896-10.308-1.302-15.087-1.302-22.205 1.22-42.62 10.94-57.503 27.45-14.885 16.47-22.447 37.78-21.249 60.023 2.217 44.287 38.735 78.976 83.103 78.976l4.31-0.122c22.183-1.138 42.62-10.9 57.544-27.368 4.188-4.636 7.828-9.964 11.427-16.837l102.074 9.435c-0.04 0.12-0.04 0.203-0.04 0.285a18.739 18.739 0 0 0-0.082 2.602c0.813 15.982 6.182 31.232 15.535 44.287l-38.024 68.36c-0.488-0.08-0.976-0.121-1.444-0.203-1.442-0.203-2.948-0.405-4.493-0.405-45.912 0-83.265 37.373-83.265 83.285s37.353 83.244 83.265 83.244c45.913 0 83.266-37.332 83.266-83.244 0-24.685-11.102-47.865-30.52-63.888l31.84-57.178c9.03 3.128 18.078 4.716 26.963 4.716zM415.875 494.656c0.447 8.906-2.563 17.405-8.438 23.912-5.978 6.548-14.131 10.452-22.957 10.858l-1.788 0.04c-17.63 0-32.128-13.786-33.063-31.435-0.428-8.866 2.562-17.325 8.438-23.87 6.202-6.791 14.497-10.493 24.747-10.94 17.627-0.001 32.165 13.826 33.06 31.435z m84.322-188.248c-18.28 0-33.164-14.885-33.164-33.184 0-18.26 14.883-33.143 33.164-33.143 18.28 0 33.163 14.883 33.163 33.143 0.002 18.3-14.882 33.184-33.163 33.184z m29.362 403.375c18.28 0 33.163 14.885 33.163 33.184 0 18.26-14.883 33.143-33.163 33.143-18.28 0-33.163-14.883-33.163-33.143-0.001-18.3 14.884-33.184 33.163-33.184zM607.985 545c-0.447-8.865 2.562-17.365 8.437-23.871 6.183-6.792 14.497-10.451 24.747-10.94 17.63 0.04 32.168 13.827 33.063 31.478 0.447 8.906-2.562 17.364-8.438 23.87-5.958 6.587-14.133 10.451-22.957 10.899l-1.749 0.081c-17.671-0.04-32.168-13.867-33.103-31.517z" fill="#333333" p-id="11994"></path><path d="M511.949 959.32c-60.908 0-120.005-11.934-175.65-35.469-53.738-22.729-101.993-55.263-143.427-96.697s-73.968-89.691-96.697-143.427c-23.536-55.645-35.47-114.742-35.47-175.65S72.64 388.07 96.176 332.425c22.73-53.736 55.262-101.992 96.697-143.426s89.69-73.968 143.426-96.697c55.646-23.536 114.743-35.47 175.65-35.47S631.955 68.766 687.6 92.302c53.737 22.729 101.992 55.262 143.427 96.697s73.969 89.69 96.697 143.426c23.535 55.645 35.47 114.743 35.47 175.652s-11.935 120.005-35.47 175.65c-22.728 53.737-55.262 101.992-96.697 143.427s-89.69 73.968-143.427 96.697c-55.645 23.535-114.743 35.469-175.651 35.469z m0-860.519c-225.675 0-409.275 183.6-409.275 409.275S286.274 917.35 511.95 917.35s409.274-183.6 409.274-409.274S737.623 98.8 511.95 98.8z" fill="#333333" p-id="11995"></path></svg>