<?xml version="1.0" standalone="no"?><!DOCTYPE svg PUBLIC "-//W3C//DTD SVG 1.1//EN" "http://www.w3.org/Graphics/SVG/1.1/DTD/svg11.dtd"><svg t="1781991363737" class="icon" viewBox="0 0 1024 1024" version="1.1" xmlns="http://www.w3.org/2000/svg" p-id="11698" xmlns:xlink="http://www.w3.org/1999/xlink" width="200" height="200"><path d="M896 640h-192l73.6-73.6-128-128 44.8-44.8 128 128L896 448v192zM265.6 457.6l-128 128 44.8 44.8 128-128L384 576v-192H192l73.6 73.6zM640 832l-128-128v96h-128v64h128v96z" fill="#727272" p-id="11699"></path><path d="M512 192m-128 0a128 128 0 1 0 256 0 128 128 0 1 0-256 0Z" fill="#1177D7" p-id="11700"></path><path d="M192 832m-128 0a128 128 0 1 0 256 0 128 128 0 1 0-256 0Z" fill="#FFB115" p-id="11701"></path><path d="M832 832m-128 0a128 128 0 1 0 256 0 128 128 0 1 0-256 0Z" fill="#039C23" p-id="11702"></path></svg>