<?xml version="1.0" standalone="no"?><!DOCTYPE svg PUBLIC "-//W3C//DTD SVG 1.1//EN" "http://www.w3.org/Graphics/SVG/1.1/DTD/svg11.dtd"><svg t="1781991334692" class="icon" viewBox="0 0 1024 1024" version="1.1" xmlns="http://www.w3.org/2000/svg" p-id="10391" xmlns:xlink="http://www.w3.org/1999/xlink" width="200" height="200"><path d="M695.00928 807.44448h57.344a56.58624 56.58624 0 0 0 56.60672-56.2176v-57.73312a56.60672 56.60672 0 0 0-56.60672-56.58624h-57.344a56.60672 56.60672 0 0 0-56.60672 56.58624v57.7536a56.58624 56.58624 0 0 0 56.60672 56.19712z m-18.86208-113.95072a18.86208 18.86208 0 0 1 18.8416-18.86208h57.36448a18.86208 18.86208 0 0 1 18.88256 18.86208v57.7536a18.49344 18.49344 0 0 1-18.88256 18.47296h-57.344a18.49344 18.49344 0 0 1-18.86208-18.49344zM704.8192 605.5936a18.86208 18.86208 0 1 0 37.72416 0V490.0864a18.86208 18.86208 0 0 0-18.8416-18.8416h-195.85024v-57.7536a18.86208 18.86208 0 0 0-37.74464 0v57.7536H294.2976a18.86208 18.86208 0 0 0-18.86208 18.8416v115.46624a18.86208 18.86208 0 1 0 37.72416 0v-96.58368h176.96768v91.29984a18.86208 18.86208 0 1 0 37.74464 0v-91.29984h176.9472zM540.672 387.11296a56.60672 56.60672 0 0 0 56.60672-56.60672v-57.344a56.60672 56.60672 0 0 0-56.60672-56.60672h-57.344a56.60672 56.60672 0 0 0-56.60672 56.58624v57.344a56.60672 56.60672 0 0 0 56.60672 56.6272z m-76.22656-56.60672v-57.344a18.86208 18.86208 0 0 1 18.88256-18.88256h57.344a18.86208 18.86208 0 0 1 18.88256 18.86208v57.344a18.86208 18.86208 0 0 1-18.88256 18.88256h-57.344a18.86208 18.86208 0 0 1-18.88256-18.86208zM271.64672 636.90752a56.60672 56.60672 0 0 0-56.60672 56.58624v57.7536a56.58624 56.58624 0 0 0 56.60672 56.19712h57.344a56.58624 56.58624 0 0 0 56.60672-56.2176v-57.73312a56.60672 56.60672 0 0 0-56.60672-56.58624z m76.20608 56.58624v57.7536a18.49344 18.49344 0 0 1-18.8416 18.47296h-57.36448a18.49344 18.49344 0 0 1-18.88256-18.49344v-57.73312a18.86208 18.86208 0 0 1 18.88256-18.86208h57.344a18.86208 18.86208 0 0 1 18.86208 18.86208zM483.328 636.90752a56.60672 56.60672 0 0 0-56.60672 56.58624v57.7536a56.60672 56.60672 0 0 0 56.60672 56.19712h57.344a56.60672 56.60672 0 0 0 56.60672-56.2176v-57.73312A56.60672 56.60672 0 0 0 540.672 636.928z m76.22656 56.58624v57.7536a18.49344 18.49344 0 0 1-18.88256 18.47296h-57.344a18.49344 18.49344 0 0 1-18.88256-18.49344v-57.73312a18.86208 18.86208 0 0 1 18.88256-18.86208h57.344a18.86208 18.86208 0 0 1 18.88256 18.86208zM931.84 256h-20.48v77.33248l40.96-14.86848V276.48a20.50048 20.50048 0 0 0-20.48-20.48z" fill="#666666" p-id="10392"></path><path d="M911.36 901.12a10.24 10.24 0 0 1-10.24 10.24H122.88a10.24 10.24 0 0 1-10.24-10.24V122.88a10.24 10.24 0 0 1 10.24-10.24h829.2352v-20.48a20.50048 20.50048 0 0 0-20.48-20.48H102.4A30.76096 30.76096 0 0 0 71.68 102.4v819.2A30.76096 30.76096 0 0 0 102.4 952.32h819.2a30.76096 30.76096 0 0 0 30.72-30.72V459.42784l-40.96 15.03232z" fill="#666666" p-id="10393"></path><path d="M911.36 430.77632l40.96-14.86848v-53.73952l-40.96 14.86848v53.73952z" fill="#666666" p-id="10394"></path></svg>