<?xml version="1.0" standalone="no"?><!DOCTYPE svg PUBLIC "-//W3C//DTD SVG 1.1//EN" "http://www.w3.org/Graphics/SVG/1.1/DTD/svg11.dtd"><svg t="1781991340816" class="icon" viewBox="0 0 1024 1024" version="1.1" xmlns="http://www.w3.org/2000/svg" p-id="10694" xmlns:xlink="http://www.w3.org/1999/xlink" width="200" height="200"><path d="M776.718629 447.166171a212.114286 212.114286 0 1 1 0-424.228571 212.114286 212.114286 0 0 1 0 424.228571z" fill="#C50935" p-id="10695"></path><path d="M543.071086 204.8a236.368457 236.368457 0 0 0-0.438857 54.798629H80.164571a10.737371 10.737371 0 0 0-10.766628 10.737371v688.128c0 5.9392 4.827429 10.737371 10.766628 10.737371h688.128a10.766629 10.766629 0 0 0 10.737372-10.737371V468.085029A234.261943 234.261943 0 0 0 833.828571 460.741486V958.464A65.536 65.536 0 0 1 768.292571 1024H80.164571A65.536 65.536 0 0 1 14.628571 958.464V270.336A65.536 65.536 0 0 1 80.164571 204.8h462.906515z" fill="#4D555F" p-id="10696"></path><path d="M467.7632 395.410286h-87.069257a62.961371 62.961371 0 0 0-65.009372 60.913371 62.961371 62.961371 0 0 0 65.038629 62.990629h87.04a62.961371 62.961371 0 0 0 65.009371-61.44 62.990629 62.990629 0 0 0-65.038628-62.464z m0 81.393371h-87.069257a20.48 20.48 0 1 1 0-40.433371h87.069257a20.48 20.48 0 1 1 0 40.462628z m0 122.88h-87.069257a61.44 61.44 0 1 0 0 122.88h87.069257a61.44 61.44 0 1 0 0-122.88z m0 81.92h-87.069257a20.48 20.48 0 0 1 0-40.96h87.069257a20.48 20.48 0 0 1 0 40.96z m0 122.88h-87.069257a61.44 61.44 0 1 0 0 122.88h87.069257a61.44 61.44 0 1 0 0-122.88z m0 81.92h-87.069257a20.48 20.48 0 0 1 0-40.96h87.069257a20.48 20.48 0 0 1 0 40.96z m-238.592-40.96a90.112 90.112 0 0 1-60.942629-24.049371 79.374629 79.374629 0 0 1 0-115.712 90.112 90.112 0 0 1 61.44-24.078629h40.96v-40.96H229.141943a126.976 126.976 0 0 0-130.018743 122.88 126.976 126.976 0 0 0 130.018743 122.88v42.510629l65.038628-61.44-65.038628-61.44v40.96-1.521372z m390.144-409.6H577.828571v40.462629h43.534629a90.112 90.112 0 0 1 61.44 24.049371c15.9744 15.008914 25.073371 35.957029 25.073371 57.870629a78.350629 78.350629 0 0 1-27.648 58.368 87.537371 87.537371 0 0 1-61.44 24.078628v-40.96l-65.038628 61.44 65.536 62.961372v-40.96a126.478629 126.478629 0 0 0 130.048-122.88 126.478629 126.478629 0 0 0-130.018743-122.353372v-2.048z" fill="#4D555F" p-id="10697"></path></svg>